<?xml version="1.0" encoding="utf-8"?>
<!-- Generator: Adobe Illustrator 26.0.2, SVG Export Plug-In . SVG Version: 6.00 Build 0)  -->
<svg version="1.1" id="Layer_1" xmlns="http://www.w3.org/2000/svg" xmlns:xlink="http://www.w3.org/1999/xlink" x="0px" y="0px"
	 viewBox="0 0 116.2 116.5" style="enable-background:new 0 0 116.2 116.5;" xml:space="preserve">
<style type="text/css">
	.st0{fill:#FFFFFF;stroke:#000000;stroke-width:10;stroke-linecap:round;stroke-linejoin:round;}
	
		.st1{opacity:0.12;fill:#FFFFFF;stroke:#000000;stroke-width:10;stroke-linecap:round;stroke-linejoin:round;enable-background:new    ;}
	.st2{fill:#FFFFFF;stroke:#000000;stroke-width:10;stroke-miterlimit:10;}
	.st3{fill:#FFFFFF;stroke:#000000;stroke-width:7.88;stroke-linecap:round;stroke-miterlimit:10;}
</style>
<g id="Layer_2_00000081605843950582493830000003264808764814187963_">
	<g id="Layer_1-2">
		<path class="st0" d="M17.5,9.9c14.3-3.3,48.1-9,82.5-0.3c4.6,1.1,8,5.3,8.8,10.5c4.6,31.1,1.9,61,0,75.6c-0.7,5.6-4.5,10-9.4,10.9
			c-16.9,3.1-56.5,8.9-82.2,0.8c-4.2-1.4-7.3-5-8.1-9.4C1.9,65.5,5.9,34.2,8.6,19.9C9.5,14.8,13,10.9,17.5,9.9z"/>
		<path class="st1" d="M12.2,100.8c0,0,38.3,9.2,89.1-0.3c4.1-32.1,4.8-37.1,0.5-88.5"/>
		<path class="st2" d="M23.2,64.2l56.2-23.9c0,0,13.2-4.4,17,3.9c7,15.6-7.1,21.8-7.1,21.8L34.2,87.3c0,0-14.2,3.3-17.2-12.1
			C15.8,68.7,23.2,64.2,23.2,64.2z"/>
		<path class="st3" d="M33.5,60.6c0,0,4.8,0.3,6.7,4.3"/>
		<path class="st3" d="M49.8,53.2c0,0,4.8,0.3,6.7,4.3"/>
		<path class="st3" d="M65.3,47.2c0,0,4.8,0.3,6.7,4.3"/>
	</g>
</g>
</svg>
