<svg xmlns="http://www.w3.org/2000/svg" viewBox="0 0 432.83 37.83"><defs><style>.cls-1,.cls-2{fill:#fff;}.cls-1,.cls-2,.cls-3{stroke:#000;stroke-linecap:round;stroke-linejoin:round;}.cls-1{stroke-width:9.83px;}.cls-2{stroke-width:6.06px;}.cls-3{fill:none;stroke-width:5px;opacity:0.12;}</style></defs><g id="Layer_2" data-name="Layer 2"><g id="Layer_1-2" data-name="Layer 1"><path class="cls-1" d="M8.83,6.19c4.49-.86,404.76-2.35,415.54-.07a3.5,3.5,0,0,1,2.76,2.76,63.81,63.81,0,0,1,0,19.88,3.47,3.47,0,0,1-3,2.85c-5.29.82-407.41,2.35-415.47.22a3.47,3.47,0,0,1-2.51-2.46A45.24,45.24,0,0,1,6,8.82,3.48,3.48,0,0,1,8.83,6.19Z"/><line class="cls-2" x1="194.91" y1="22.91" x2="253.76" y2="22.91"/><path class="cls-3" d="M425.76,11S205.94,6,12.23,12.45c-1.41,6-1,15.79-1,15.79"/></g></g></svg>