<svg xmlns="http://www.w3.org/2000/svg" viewBox="0 0 39.75 36.97"><defs><style>.cls-1{fill:#fff;stroke-width:10px;}.cls-1,.cls-2{stroke:#000;stroke-linecap:round;stroke-linejoin:round;}.cls-2{fill:none;stroke-width:5px;opacity:0.12;}</style></defs><g id="Layer_2" data-name="Layer 2"><g id="Layer_1-2" data-name="Layer 1"><path class="cls-1" d="M8.63,6.1c4-.78,13.48-2.12,23.08.19A3.25,3.25,0,0,1,34.14,9a66.31,66.31,0,0,1-.21,19.16,3.23,3.23,0,0,1-2.67,2.72c-4.73.74-15.85,2.1-23,0A3.26,3.26,0,0,1,6,28.43a47.14,47.14,0,0,1,.1-19.82A3.22,3.22,0,0,1,8.63,6.1Z"/><path class="cls-2" d="M32.8,10.21l-17.71.38a4,4,0,0,0-4.17,3.85,76.52,76.52,0,0,0,1.31,15.19"/></g></g></svg>