<svg xmlns="http://www.w3.org/2000/svg" viewBox="0 0 116.25 116.5"><defs><style>.cls-1,.cls-2,.cls-3{fill:#fff;stroke:#000;stroke-width:10px;}.cls-1,.cls-2{stroke-linecap:round;}.cls-1,.cls-2,.cls-3,.cls-4{stroke-linejoin:round;}.cls-2{opacity:0.12;}.cls-4{stroke:#fff;}</style></defs><g id="Layer_2" data-name="Layer 2"><g id="Layer_1-2" data-name="Layer 1"><path class="cls-1" d="M17.48,9.87C31.8,6.6,65.56.91,100,9.61c4.55,1.15,8,5.31,8.79,10.49,4.55,31.07,1.88,61,0,75.59-.73,5.56-4.53,10-9.44,10.86-16.87,3.11-56.53,8.94-82.25.81A12.31,12.31,0,0,1,9,98C1.86,65.49,5.92,34.2,8.58,19.86,9.52,14.82,13,10.89,17.48,9.87Z"/><path class="cls-2" d="M104.76,16s-38.35-9.17-89.1.28c-4.08,32.13-4.83,37.09-.49,88.53"/><path class="cls-3" d="M96.57,29.78V89S94,93.2,75.26,93.2,54,88.53,54,88.53V31.78l-33,3,6,8-6,9.89,7.61,8.82-7.61,9.36,9,9.93-6,10,30-4"/><path class="cls-3" d="M96.57,30.78c-20.38,6-42.61,1-42.61,1S76.19,21.78,96.57,30.78Z"/><path class="cls-4" d="M85.94,30.49a128.56,128.56,0,0,1-20,.39A74.93,74.93,0,0,1,85.94,30.49Z"/><path d="M71.82,21.93c-2.54.22-5.08.44-7.6.86a17.12,17.12,0,0,0-6.39,2.09c-1.62,1.05-.11,3.65,1.52,2.6A14.8,14.8,0,0,1,65,25.69c2.25-.38,4.53-.56,6.8-.76a1.54,1.54,0,0,0,1.5-1.5,1.5,1.5,0,0,0-1.5-1.5Z"/></g></g></svg>