<?xml version="1.0" encoding="utf-8"?>
<!-- Generator: Adobe Illustrator 26.0.2, SVG Export Plug-In . SVG Version: 6.00 Build 0)  -->
<svg version="1.1" id="Layer_1" xmlns="http://www.w3.org/2000/svg" xmlns:xlink="http://www.w3.org/1999/xlink" x="0px" y="0px"
	 viewBox="0 0 93.7 64.4" style="enable-background:new 0 0 93.7 64.4;" xml:space="preserve">
<style type="text/css">
	.st0{stroke:#000000;stroke-width:3.71;stroke-linecap:round;stroke-miterlimit:10;}
	.st1{fill:none;stroke:#000000;stroke-width:5;stroke-linecap:square;stroke-linejoin:round;}
</style>
<g id="Layer_2_00000008143636783992415930000000379658123980754617_">
	<g id="Layer_1-2">
		<path class="st0" d="M21.9,32.8c0,3.5,5.2,3.1,5.2,3.1h24.4l-5.3,5.3c0,0-2.4,1.8,0,3.7c1.4,1.1,3.3,1.1,4.7,0l12.1-12.1"/>
		<path class="st0" d="M21.9,32.8c0-3.5,5.2-3.1,5.2-3.1h24.4l-5.3-5.3c0,0-2.4-1.8,0-3.7c1.4-1.1,3.3-1.1,4.7,0l12.1,12.1"/>
		<polyline class="st1" points="35.2,42.1 35.2,53.9 62.4,53.9 62.4,9.8 35.2,9.8 35.2,23.4 		"/>
	</g>
</g>
</svg>
