<?xml version="1.0" encoding="utf-8"?>
<!-- Generator: Adobe Illustrator 26.0.2, SVG Export Plug-In . SVG Version: 6.00 Build 0)  -->
<svg version="1.1" id="Layer_1" xmlns="http://www.w3.org/2000/svg" xmlns:xlink="http://www.w3.org/1999/xlink" x="0px" y="0px"
	 viewBox="0 0 116.2 116.5" style="enable-background:new 0 0 116.2 116.5;" xml:space="preserve">
<style type="text/css">
	.st0{fill:#FFFFFF;stroke:#000000;stroke-width:10;stroke-linecap:round;stroke-linejoin:round;}
	
		.st1{opacity:0.12;fill:#FFFFFF;stroke:#000000;stroke-width:10;stroke-linecap:round;stroke-linejoin:round;enable-background:new    ;}
	.st2{fill:#FFFFFF;stroke:#000000;stroke-width:10;stroke-linejoin:round;}
	.st3{stroke:#FFFFFF;stroke-linejoin:round;}
</style>
<g id="Layer_2_00000018936034785670423900000011486317196884492421_">
	<g id="Layer_1-2">
		<path class="st0" d="M17.5,9.9c14.3-3.3,48.1-9,82.5-0.3c4.6,1.1,8,5.3,8.8,10.5c4.6,31.1,1.9,61,0,75.6c-0.7,5.6-4.5,10-9.4,10.9
			c-16.9,3.1-56.5,8.9-82.2,0.8c-4.2-1.4-7.3-5-8.1-9.4C1.9,65.5,5.9,34.2,8.6,19.9C9.5,14.8,13,10.9,17.5,9.9z"/>
		<path class="st1" d="M14.5,101.7c0,0,38.3,9.2,89.1-0.3c4.1-32.1,4.8-37.1,0.5-88.5"/>
		<path class="st2" d="M94.6,27.8V87c0,0-2.6,4.2-21.3,4.2S52,86.5,52,86.5V29.8l-33,3l6,8l-6,9.9l7.6,8.8L19,68.8l9,9.9l-6,10l30-4
			"/>
		<path class="st2" d="M94.6,28.8c-20.4,6-42.6,1-42.6,1S74.2,19.8,94.6,28.8z"/>
		<path class="st3" d="M83.9,28.5c-6.6,0.6-13.3,0.8-20,0.4C70.6,27.9,77.3,27.7,83.9,28.5z"/>
	</g>
</g>
</svg>
