<?xml version="1.0" encoding="utf-8"?>
<!-- Generator: Adobe Illustrator 26.0.2, SVG Export Plug-In . SVG Version: 6.00 Build 0)  -->
<svg version="1.1" id="Layer_1" xmlns="http://www.w3.org/2000/svg" xmlns:xlink="http://www.w3.org/1999/xlink" x="0px" y="0px"
	 viewBox="0 0 116.2 116.5" style="enable-background:new 0 0 116.2 116.5;" xml:space="preserve">
<style type="text/css">
	.st0{fill:#FFFFFF;stroke:#000000;stroke-width:10;stroke-linecap:round;stroke-linejoin:round;}
	
		.st1{opacity:0.12;fill:#FFFFFF;stroke:#000000;stroke-width:10;stroke-linecap:round;stroke-linejoin:round;enable-background:new    ;}
</style>
<g id="Layer_2_00000109736662114543356050000015322163159705842846_">
	<g id="Layer_1-2">
		<path class="st0" d="M17.5,9.9c14.3-3.3,48.1-9,82.5-0.3c4.6,1.1,8,5.3,8.8,10.5c4.6,31.1,1.9,61,0,75.6c-0.7,5.6-4.5,10-9.4,10.9
			c-16.9,3.1-56.5,8.9-82.2,0.8c-4.2-1.4-7.3-5-8.1-9.4C1.9,65.5,5.9,34.2,8.6,19.9C9.5,14.8,13,10.9,17.5,9.9z"/>
		<path class="st1" d="M104.6,16.2c0,0-38.4-9.2-89.1,0.3C11.4,48.6,10.6,53.6,15,105"/>
		<polygon class="st0" points="100,46.4 73.9,46.4 73.9,20.3 46.1,20.3 46.1,46.4 20,46.4 20,74.2 46.1,74.2 46.1,100.3 73.9,100.3 
			73.9,74.2 100,74.2 		"/>
	</g>
</g>
</svg>
