<svg enable-background="new 0 0 156.3 78.3" viewBox="0 0 156.3 78.3" xmlns="http://www.w3.org/2000/svg"><g stroke="#000" stroke-linecap="round" stroke-linejoin="round" stroke-width="10"><path d="m22.2 8.1c19.7-2.1 66.2-5.7 113.6-.1 6.3.7 11.1 3.4 12.1 6.7 6.3 19.9 2.6 39.1 0 48.5-1 3.6-6.2 6.4-13 7-23.2 2-77.8 5.7-113.3.5-5.5-.8-9.7-3.1-11-6-9.9-20.9-4.3-41-.6-50.2 1.2-3.2 6-5.7 12.2-6.4z" fill="#fff"/><path d="m11.9 65.1s65.1 8.9 130.8-1.4c2.5-13.1 4.2-20.4-1.8-48.6" fill="#fff" opacity=".12"/><path d="m60.2 23.3s-4.6 28.3 10.5 30.5 26-.8 24.2-30.5" fill="none"/></g></svg>