<?xml version="1.0" encoding="utf-8"?>
<!-- Generator: Adobe Illustrator 26.0.2, SVG Export Plug-In . SVG Version: 6.00 Build 0)  -->
<svg version="1.1" id="Layer_1" xmlns="http://www.w3.org/2000/svg" xmlns:xlink="http://www.w3.org/1999/xlink" x="0px" y="0px"
	 viewBox="0 0 116.2 116.5" style="enable-background:new 0 0 116.2 116.5;" xml:space="preserve">
<style type="text/css">
	.st0{fill:#FFFFFF;stroke:#000000;stroke-width:10;stroke-linecap:round;stroke-linejoin:round;}
	
		.st1{opacity:0.12;fill:#FFFFFF;stroke:#000000;stroke-width:10;stroke-linecap:round;stroke-linejoin:round;enable-background:new    ;}
	.st2{fill:#FFFFFF;stroke:#000000;stroke-width:10;stroke-miterlimit:10;}
	.st3{fill:#FFFFFF;stroke:#000000;stroke-width:9.66;stroke-linecap:square;stroke-miterlimit:10;}
</style>
<g id="Layer_2_00000181060640502014168650000015492873745700086969_">
	<g id="Layer_1-2">
		<path class="st0" d="M17.5,9.9c14.3-3.3,48.1-9,82.5-0.3c4.6,1.1,8,5.3,8.8,10.5c4.6,31.1,1.9,61,0,75.6c-0.7,5.6-4.5,10-9.4,10.9
			c-16.9,3.1-56.5,8.9-82.2,0.8c-4.2-1.4-7.3-5-8.1-9.4C1.9,65.5,5.9,34.2,8.6,19.9C9.5,14.8,13,10.9,17.5,9.9z"/>
		<path class="st1" d="M13.2,101.7c0,0,38.3,9.2,89.1-0.3c4.1-32.1,4.8-37.1,0.5-88.5"/>
		<path class="st2" d="M83.5,60.8c-25.9-9.7-50.7,1.5-50.7,1.5S17.8,67.2,19.1,82s13.6,14.6,13.6,14.6s10.5,0.7,12.1-7.3
			c1.3-6.5,24.6-7.8,27.1-1.8c2,5.1,7.2,8.2,12.6,7.6c0,0,11.6-0.4,12.5-14.3C97.5,71.8,90.7,63.4,83.5,60.8z"/>
		<path class="st3" d="M59.6,52.9c0,0-10.5-9.1,0-19s-1.7-24-1.7-24"/>
	</g>
</g>
</svg>
