<?xml version="1.0" encoding="utf-8"?>
<!-- Generator: Adobe Illustrator 26.0.2, SVG Export Plug-In . SVG Version: 6.00 Build 0)  -->
<svg version="1.1" id="Layer_1" xmlns="http://www.w3.org/2000/svg" xmlns:xlink="http://www.w3.org/1999/xlink" x="0px" y="0px"
	 viewBox="0 0 156.3 78.3" style="enable-background:new 0 0 156.3 78.3;" xml:space="preserve">
<style type="text/css">
	.st0{fill:#FFFFFF;stroke:#000000;stroke-width:10;stroke-linecap:round;stroke-linejoin:round;}
	
		.st1{opacity:0.12;fill:#FFFFFF;stroke:#000000;stroke-width:10;stroke-linecap:round;stroke-linejoin:round;enable-background:new    ;}
</style>
<g id="Layer_2_00000163788993335068061880000011610156010704717462_">
	<g id="Layer_1-2">
		<path class="st0" d="M22.2,8.1C41.9,6,88.4,2.4,135.8,8c6.3,0.7,11.1,3.4,12.1,6.7c6.3,19.9,2.6,39.1,0,48.5c-1,3.6-6.2,6.4-13,7
			c-23.2,2-77.8,5.7-113.3,0.5c-5.5-0.8-9.7-3.1-11-6c-9.9-20.9-4.3-41-0.6-50.2C11.2,11.3,16,8.8,22.2,8.1z"/>
		<path class="st1" d="M11.4,65.5c0,0,65.2,8.9,130.8-1.4c2.5-13.1,4.3-20.4-1.7-48.6"/>
		<path class="st0" d="M78.2,21.4c0,0-21-2.3-21.9,17s21.4,17,21.4,17s22.3,1.3,22.5-17S78.2,21.4,78.2,21.4z"/>
	</g>
</g>
</svg>
