<?xml version="1.0" encoding="utf-8"?>
<!-- Generator: Adobe Illustrator 26.0.2, SVG Export Plug-In . SVG Version: 6.00 Build 0)  -->
<svg version="1.1" id="Layer_1" xmlns="http://www.w3.org/2000/svg" xmlns:xlink="http://www.w3.org/1999/xlink" x="0px" y="0px"
	 viewBox="0 0 474.9 37.9" style="enable-background:new 0 0 474.9 37.9;" xml:space="preserve">
<style type="text/css">
	.st0{fill:#FFFFFF;stroke:#000000;stroke-width:9.83;stroke-linecap:round;stroke-linejoin:round;}
	.st1{fill:#FFFFFF;stroke:#000000;stroke-width:10;stroke-linecap:round;stroke-linejoin:round;}
	.st2{fill:none;stroke:#000000;stroke-width:6.06;stroke-linecap:round;stroke-linejoin:round;}
	
		.st3{opacity:0.12;fill:none;stroke:#000000;stroke-width:5;stroke-linecap:round;stroke-linejoin:round;enable-background:new    ;}
</style>
<g id="Layer_2_00000111906098973507347930000008401161501224086668_">
	<g id="Layer_1-2">
		<path class="st0" d="M8.8,6.3c4.5-0.8,404.8-2.3,415.5-0.1c1.4,0.3,2.5,1.4,2.8,2.8c1,6.6,1,13.3,0,19.9c-0.3,1.5-1.5,2.7-3,2.9
			c-5.3,0.8-407.4,2.3-415.5,0.2c-1.2-0.3-2.2-1.2-2.5-2.5C4.5,22.7,4.5,15.7,6,8.9C6.3,7.6,7.4,6.5,8.8,6.3z"/>
		<path class="st1" d="M443.8,6.1c4-0.8,13.5-2.1,23.1,0.2c1.3,0.3,2.2,1.4,2.4,2.7c0.9,6.4,0.8,12.8-0.2,19.2
			c-0.2,1.4-1.3,2.5-2.7,2.7c-4.7,0.7-15.8,2.1-23,0c-1.1-0.3-2-1.3-2.2-2.4c-1.4-6.5-1.3-13.3,0.1-19.8
			C441.5,7.4,442.5,6.4,443.8,6.1z"/>
		<line class="st2" x1="192.9" y1="22" x2="251.8" y2="22"/>
		<path class="st3" d="M8.2,27.5c0,0,219.8,5,413.5-1.5c1.4-6,1-15.8,1-15.8"/>
		<path class="st3" d="M444.1,27.6l17.7-0.4c2.2,0.1,4.1-1.6,4.2-3.8c0,0,0,0,0,0c0.1-5.1-0.4-10.2-1.3-15.2"/>
	</g>
</g>
</svg>
