<svg xmlns="http://www.w3.org/2000/svg" viewBox="0 0 156.3 78.27"><defs><style>.cls-1,.cls-2{fill:#fff;stroke:#000;stroke-linecap:round;stroke-linejoin:round;stroke-width:10px;}.cls-2{opacity:0.12;}</style></defs><g id="Layer_2" data-name="Layer 2"><g id="Layer_1-2" data-name="Layer 1"><path class="cls-1" d="M22.19,8.12C41.9,6,88.39,2.38,135.75,8c6.26.74,11.05,3.41,12.09,6.73,6.27,19.92,2.6,39.1,0,48.46-1,3.56-6.24,6.37-13,7-23.23,2-77.83,5.73-113.26.52-5.46-.81-9.66-3.1-11-6C.67,43.77,6.26,23.72,9.93,14.53,11.23,11.3,16,8.77,22.19,8.12Z"/><path class="cls-2" d="M144.61,14.12S79.46,5.2,13.79,15.53c-2.54,13.1-4.28,20.41,1.72,48.59"/><path class="cls-1" d="M80.15,23.37s-21-2.33-21.88,17,21.37,17,21.37,17,22.28,1.32,22.51-17S80.15,23.37,80.15,23.37Z"/></g></g></svg>