<svg xmlns="http://www.w3.org/2000/svg" viewBox="0 0 116.25 116.5"><defs><style>.cls-1,.cls-2,.cls-3,.cls-4{fill:#fff;stroke:#000;}.cls-1,.cls-2,.cls-4{stroke-linecap:round;}.cls-1,.cls-2{stroke-linejoin:round;}.cls-1,.cls-2,.cls-3{stroke-width:10px;}.cls-2{opacity:0.12;}.cls-3,.cls-4{stroke-miterlimit:10;}.cls-4{stroke-width:7.88px;}</style></defs><g id="Layer_2" data-name="Layer 2"><g id="Layer_1-2" data-name="Layer 1"><path class="cls-1" d="M17.48,9.87C31.8,6.6,65.56.91,100,9.61c4.55,1.15,8,5.31,8.79,10.49,4.55,31.07,1.88,61,0,75.59-.73,5.56-4.53,10-9.44,10.86-16.87,3.11-56.53,8.94-82.25.81A12.31,12.31,0,0,1,9,98C1.86,65.49,5.92,34.2,8.58,19.86,9.52,14.82,13,10.89,17.48,9.87Z"/><path class="cls-2" d="M104.71,17s-38.35-9.18-89.1.27c-4.09,32.13-4.84,37.09-.49,88.54"/><path class="cls-3" d="M26.18,66.19,82.43,42.31s13.22-4.42,17,3.9C106.4,61.8,92.29,68,92.29,68L37.2,89.27S23,92.57,20.05,77.21C18.8,70.7,26.18,66.19,26.18,66.19Z"/><path class="cls-4" d="M36.55,62.6s4.78.33,6.72,4.33"/><path class="cls-4" d="M52.8,55.22s4.78.33,6.72,4.34"/><path class="cls-4" d="M68.32,49.21s4.77.33,6.71,4.34"/></g></g></svg>